<svg xmlns="http://www.w3.org/2000/svg">
    <defs>
        <symbol id="activity" viewBox="0 0 24 24">
        <polyline points="22 12 18 12 15 21 9 3 6 12 2 12"></polyline>
        </symbol>
        <symbol id="package" viewBox="0 0 24 24">
        <path d="M12.89 1.45l8 4A2 2 0 0 1 22 7.24v9.53a2 2 0 0 1-1.11 1.79l-8 4a2 2 0 0 1-1.79 0l-8-4a2 2 0 0 1-1.1-1.8V7.24a2 2 0 0 1 1.11-1.79l8-4a2 2 0 0 1 1.78 0z"></path><polyline points="2.32 6.16 12 11 21.68 6.16"></polyline><line x1="12" y1="22.76" x2="12" y2="11"></line><line x1="7" y1="3.5" x2="17" y2="8.5"></line>
        </symbol>
        <symbol id="chevron-right" viewBox="0 0 9 9">
        <path d="M8.00805 4.50698L0.984022 8.85131L0.999674 0.137432L8.00805 4.50698Z" fill="black"/>
        </symbol>
        <symbol id="chevron-right" viewBox="0 0 9 9">
        <path d="M8.00805 4.50698L0.984022 8.85131L0.999674 0.137432L8.00805 4.50698Z" fill="black"/>
        </symbol>
    </defs>
</svg>